<svg xmlns="http://www.w3.org/2000/svg" xmlns:xlink="http://www.w3.org/1999/xlink" width="378" zoomAndPan="magnify" viewBox="0 0 283.5 283.500005" height="378" preserveAspectRatio="xMidYMid meet" version="1.0"><defs><g/><clipPath id="3e6a71408a"><path d="M 0 0 L 283 0 L 283 283 L 0 283 Z M 0 0 " clip-rule="nonzero"/></clipPath><clipPath id="3e77eab5e7"><path d="M 115.164062 156.648438 L 264 156.648438 L 264 183.605469 L 115.164062 183.605469 Z M 115.164062 156.648438 " clip-rule="nonzero"/></clipPath><clipPath id="9c46ffedd8"><rect x="0" width="104" y="0" height="104"/></clipPath><clipPath id="4a76ecde16"><rect x="0" width="131" y="0" height="90"/></clipPath><clipPath id="144f3a73a4"><rect x="0" width="283" y="0" height="283"/></clipPath></defs><path fill="#ffffff" d="M 0 0 L 283 0 L 283 283 L 0 283 Z M 0 0 " fill-opacity="1" fill-rule="nonzero"/><g transform="matrix(1, 0, 0, 1, 0, 0.000000000000005262)"><g clip-path="url(#144f3a73a4)"><g clip-path="url(#3e6a71408a)"><rect x="-62.37" width="408.24" fill="#ff5757" height="408.240007" y="-62.370001" fill-opacity="1"/></g><g clip-path="url(#3e77eab5e7)"><path fill="#cecdcd" d="M 262.867188 172.574219 C 262.71875 173.066406 262.472656 173.53125 262.121094 173.921875 C 258.996094 177.425781 254.566406 179.789062 251.132812 183.007812 C 248.636719 185.351562 246.433594 180.003906 248.46875 178.09375 C 250.160156 176.503906 252.097656 175.125 254.003906 173.710938 C 232.339844 173.316406 210.675781 173.097656 189.007812 173.074219 C 165.691406 173.054688 142.308594 172.933594 119.082031 175.226562 C 115.679688 175.558594 114.355469 171.121094 118.21875 170.742188 C 141.445312 168.453125 164.828125 168.570312 188.144531 168.59375 C 210.289062 168.613281 232.4375 168.84375 254.578125 169.253906 C 251.722656 166.511719 248.589844 163.984375 245.398438 161.824219 C 242.75 160.027344 246.335938 155.398438 248.652344 156.96875 C 253.832031 160.480469 258.90625 164.714844 262.984375 169.472656 C 263.765625 170.386719 263.539062 171.597656 262.867188 172.574219 Z M 262.867188 172.574219 " fill-opacity="1" fill-rule="nonzero"/></g><g transform="matrix(1, 0, 0, 1, 23, 88)"><g clip-path="url(#9c46ffedd8)"><g fill="#1800ad" fill-opacity="1"><g transform="translate(7.287228, 80.249108)"><g><path d="M -4.15625 0 L 9.53125 -59.390625 L 33.3125 -59.390625 L 30.6875 -47.84375 L 18.875 -47.84375 L 16.65625 -38.375 L 27.859375 -38.375 L 25.234375 -26.96875 L 14.03125 -26.96875 L 7.8125 0 Z M -4.15625 0 "/></g></g></g><g fill="#1800ad" fill-opacity="1"><g transform="translate(33.349967, 80.249108)"><g><path d="M 9.875 0.546875 C 5.082031 0.546875 1.78125 -0.914062 -0.03125 -3.84375 C -1.851562 -6.769531 -2.144531 -10.878906 -0.90625 -16.171875 L 5.59375 -44.453125 C 6.789062 -49.566406 8.929688 -53.425781 12.015625 -56.03125 C 15.109375 -58.632812 19.050781 -59.9375 23.84375 -59.9375 C 28.632812 -59.9375 31.972656 -58.632812 33.859375 -56.03125 C 35.753906 -53.425781 36.101562 -49.566406 34.90625 -44.453125 L 28.40625 -16.171875 C 27.164062 -10.828125 24.96875 -6.703125 21.8125 -3.796875 C 18.65625 -0.898438 14.675781 0.546875 9.875 0.546875 Z M 12.375 -10.375 C 13.425781 -10.375 14.25 -10.832031 14.84375 -11.75 C 15.445312 -12.675781 15.9375 -13.96875 16.3125 -15.625 L 23.015625 -44.671875 C 23.296875 -45.953125 23.363281 -46.992188 23.21875 -47.796875 C 23.082031 -48.609375 22.484375 -49.015625 21.421875 -49.015625 C 19.441406 -49.015625 18.109375 -47.519531 17.421875 -44.53125 L 10.703125 -15.5625 C 10.296875 -13.851562 10.191406 -12.5625 10.390625 -11.6875 C 10.597656 -10.8125 11.257812 -10.375 12.375 -10.375 Z M 12.375 -10.375 "/></g></g></g><g fill="#1800ad" fill-opacity="1"><g transform="translate(65.427259, 80.249108)"><g><path d="M 9.53125 -59.390625 L 27.78125 -59.390625 C 30.6875 -59.390625 32.785156 -58.734375 34.078125 -57.421875 C 35.367188 -56.109375 36.015625 -54.265625 36.015625 -51.890625 C 36.015625 -49.515625 35.597656 -46.484375 34.765625 -42.796875 C 33.984375 -39.429688 32.9375 -36.800781 31.625 -34.90625 C 30.3125 -33.019531 28.476562 -31.707031 26.125 -30.96875 C 27.832031 -30.601562 28.925781 -29.707031 29.40625 -28.28125 C 29.894531 -26.851562 29.863281 -24.914062 29.3125 -22.46875 L 23.984375 0 L 12.375 0 L 17.6875 -23.234375 C 18.101562 -24.890625 18.035156 -25.945312 17.484375 -26.40625 C 16.929688 -26.875 15.800781 -27.109375 14.09375 -27.109375 L 7.875 0 L -4.15625 0 Z M 19.421875 -37.40625 C 21.078125 -37.40625 22.320312 -39.203125 23.15625 -42.796875 C 23.519531 -44.367188 23.710938 -45.546875 23.734375 -46.328125 C 23.765625 -47.109375 23.628906 -47.648438 23.328125 -47.953125 C 23.023438 -48.253906 22.53125 -48.40625 21.84375 -48.40625 L 19.078125 -48.40625 L 16.59375 -37.40625 Z M 19.421875 -37.40625 "/></g></g></g></g></g><g transform="matrix(1, 0, 0, 1, 121, 95)"><g clip-path="url(#4a76ecde16)"><g fill="#1800ad" fill-opacity="1"><g transform="translate(1.895236, 69.4618)"><g><path d="M 0.359375 0 L 6.703125 -51.359375 L 16.734375 -51.359375 L 12.140625 -18.953125 L 22.484375 -51.359375 L 32.046875 -51.359375 L 27.3125 -18.953125 L 37.546875 -51.359375 L 47.703125 -51.359375 L 30.25 0 L 17.9375 0 L 21.046875 -24.75 L 12.90625 0 Z M 0.359375 0 "/></g></g></g><g fill="#1800ad" fill-opacity="1"><g transform="translate(41.883796, 69.4618)"><g><path d="M -4.953125 0 L 11.84375 -51.359375 L 29.234375 -51.359375 L 22.296875 0 L 12.5625 0 L 13.75 -8.3125 L 7.53125 -8.3125 L 5.03125 0 Z M 10.21875 -16.5 L 14.890625 -16.5 L 18.59375 -42.625 L 18.109375 -42.625 Z M 10.21875 -16.5 "/></g></g></g><g fill="#1800ad" fill-opacity="1"><g transform="translate(69.558964, 69.4618)"><g><path d="M 8.25 -51.359375 L 24.03125 -51.359375 C 26.539062 -51.359375 28.351562 -50.785156 29.46875 -49.640625 C 30.59375 -48.503906 31.15625 -46.910156 31.15625 -44.859375 C 31.15625 -42.804688 30.796875 -40.1875 30.078125 -37 C 29.398438 -34.09375 28.492188 -31.820312 27.359375 -30.1875 C 26.222656 -28.550781 24.632812 -27.414062 22.59375 -26.78125 C 24.070312 -26.457031 25.019531 -25.675781 25.4375 -24.4375 C 25.851562 -23.207031 25.820312 -21.535156 25.34375 -19.421875 L 20.75 0 L 10.703125 0 L 15.3125 -20.09375 C 15.664062 -21.519531 15.601562 -22.429688 15.125 -22.828125 C 14.644531 -23.234375 13.671875 -23.4375 12.203125 -23.4375 L 6.8125 0 L -3.578125 0 Z M 16.796875 -32.34375 C 18.234375 -32.34375 19.3125 -33.894531 20.03125 -37 C 20.34375 -38.351562 20.507812 -39.367188 20.53125 -40.046875 C 20.550781 -40.722656 20.429688 -41.191406 20.171875 -41.453125 C 19.921875 -41.710938 19.492188 -41.84375 18.890625 -41.84375 L 16.5 -41.84375 L 14.34375 -32.34375 Z M 16.796875 -32.34375 "/></g></g></g><g fill="#1800ad" fill-opacity="1"><g transform="translate(96.755948, 69.4618)"><g><path d="M 8.25 -51.359375 L 22.421875 -51.359375 C 26.085938 -51.359375 28.609375 -50.335938 29.984375 -48.296875 C 31.359375 -46.265625 31.609375 -43.257812 30.734375 -39.28125 L 25.296875 -15.25 C 24.140625 -10.1875 22.375 -6.378906 20 -3.828125 C 17.625 -1.273438 14.363281 0 10.21875 0 L -3.578125 0 Z M 10.640625 -9.09375 C 12.515625 -9.09375 13.671875 -10.007812 14.109375 -11.84375 L 20.203125 -38.3125 C 20.484375 -39.46875 20.59375 -40.332031 20.53125 -40.90625 C 20.476562 -41.488281 20.238281 -41.878906 19.8125 -42.078125 C 19.394531 -42.285156 18.691406 -42.390625 17.703125 -42.390625 L 16.5625 -42.390625 L 8.84375 -9.09375 Z M 10.640625 -9.09375 "/></g></g></g></g></g></g></g></svg>